<svg xmlns="http://www.w3.org/2000/svg" width="24" height="24" viewBox="0 0 24 24" fill="none" color="#173d28" stroke="currentColor" stroke-width="1.65" stroke-linecap="round" stroke-linejoin="round" aria-hidden="true" role="img">
  <title>Bowl</title>
  <path d="M4.45 11.85h15.1"/>
  <path d="M5.15 12.05c.6 3.95 3.25 6.5 6.85 6.5s6.25-2.55 6.85-6.5"/>
  <path d="M8.75 18.65h6.5"/>
  <path d="M6.05 11.72c-.18-1.78 1.18-3.05 2.88-3.05.98 0 1.85.43 2.38 1.1"/>
  <path d="M9.7 11.75c-.15-1.58.82-2.95 2.38-3.28"/>
  <path d="M11.2 9.18c.4-1.42 1.72-2.38 3.2-2.38 1.7 0 3.1 1.2 3.35 2.8"/>
  <path d="M15.85 11.72c-.1-1.7 1.12-3.08 2.78-3.08 1.15 0 2.12.65 2.55 1.58"/>
  <path d="M7.9 10.65c1.02-.15 2 .2 2.72 1.08"/>
  <path d="M13.15 11.73c.38-.88 1.18-1.45 2.05-1.45.72 0 1.38.35 1.82.95"/>
</svg>
