<svg xmlns="http://www.w3.org/2000/svg" width="24" height="24" viewBox="0 0 24 24" fill="none" color="#173d28" stroke="currentColor" stroke-width="1.65" stroke-linecap="round" stroke-linejoin="round" aria-hidden="true" role="img">
  <title>High Protein</title>
  <path d="M6.45 18.2c.65-3.2 1.45-6.3 2.75-8.85 1.35-2.65 3.25-4.35 5.45-4.35 1.55 0 2.85.7 3.4 1.7.3.55.05 1.2-.55 1.48-.42.2-.9.24-1.48.08"/>
  <path d="M14.35 7.3h2.45"/>
  <path d="M12.15 8.75v6.35l2.45-1.45c1.25-.75 2.85-.42 3.72.78.65.9.73 2.05.22 3.02"/>
  <path d="M5.95 18.05c1.05 1.1 2.75 1.72 4.7 1.72h4.5c2.55 0 4.65-1.4 4.95-3.45"/>
  <path d="M13.1 16.95c1.05 1.15 2.65 1.75 4.25 1.25"/>
</svg>
