<svg xmlns="http://www.w3.org/2000/svg" width="24" height="24" viewBox="0 0 24 24" fill="none" color="#173d28" stroke="currentColor" stroke-width="1.65" stroke-linecap="round" stroke-linejoin="round" aria-hidden="true" role="img">
  <title>Pasta</title>
  <path d="M4.55 11.75h14.9"/>
  <path d="M5.2 11.95c.55 3.95 3.2 6.55 6.8 6.55s6.25-2.6 6.8-6.55"/>
  <path d="M8.75 18.55h6.5"/>
  <path d="M6.25 9.25h6.35"/>
  <path d="M11.15 11.55V8.72c0-2.15 1.68-3.72 3.78-3.72 2.4 0 4.22 1.9 4.22 4.15v2.4"/>
  <path d="M13.25 11.55V8.65c0-.9.68-1.55 1.55-1.55"/>
  <path d="M15.3 11.55V7.2"/>
  <path d="M17.25 11.55V8.45"/>
  <path d="M12.05 7.55c1.35-.72 3.52-.52 4.9.55"/>
</svg>
