<svg xmlns="http://www.w3.org/2000/svg" width="640" height="420" viewBox="0 0 640 420">
  <defs>
    <linearGradient id="bg" x1="0" y1="0" x2="1" y2="1"><stop stop-color="#fff3c4"/><stop offset="1" stop-color="#ffffff"/></linearGradient>
    <filter id="s" x="-20%" y="-20%" width="140%" height="140%"><feDropShadow dx="0" dy="10" stdDeviation="10" flood-opacity="0.18"/></filter>
  </defs>
  <rect width="640" height="420" rx="42" fill="url(#bg)"/>
  <ellipse cx="320" cy="230" rx="210" ry="120" fill="#fff" filter="url(#s)"/>
  <ellipse cx="320" cy="225" rx="175" ry="88" fill="#fff3c4"/>
  <g opacity="0.95">
    <circle cx="245" cy="210" r="34" fill="#f6a623"/>
    <circle cx="315" cy="198" r="30" fill="#f6a623"/>
    <circle cx="390" cy="220" r="38" fill="#f6a623"/>
    <circle cx="280" cy="260" r="26" fill="#f7f0d8"/>
    <circle cx="350" cy="266" r="24" fill="#f7f0d8"/>
    <path d="M210 235 C260 180, 360 178, 430 245" stroke="#7a3e00" stroke-width="18" fill="none" stroke-linecap="round" opacity="0.72"/>
    <path d="M230 260 C290 230, 360 230, 420 265" stroke="#ffffff" stroke-width="10" fill="none" stroke-linecap="round" opacity="0.65"/>
    <g fill="#2e7d32">
      <ellipse cx="250" cy="175" rx="18" ry="8" transform="rotate(-20 250 175)"/>
      <ellipse cx="405" cy="185" rx="18" ry="8" transform="rotate(30 405 185)"/>
      <ellipse cx="365" cy="160" rx="14" ry="7" transform="rotate(-15 365 160)"/>
      <ellipse cx="295" cy="150" rx="14" ry="7" transform="rotate(25 295 150)"/>
    </g>
  </g>
  <rect x="34" y="32" width="572" height="70" rx="24" fill="#ffffff" opacity="0.78"/>
  <text x="320" y="78" font-family="Arial, Helvetica, sans-serif" font-size="28" font-weight="700" text-anchor="middle" fill="#7a3e00">American BBQ Paprika Hähnchenkeu</text>
</svg>