<svg xmlns="http://www.w3.org/2000/svg" viewBox="0 0 24 24" fill="none" stroke="#17351f" stroke-width="1.9" stroke-linecap="round" stroke-linejoin="round" aria-label="Kalorien">
  <path d="M12.1 3.9c.5 2.1-.4 3.8-1.8 5.1-1.4 1.2-2.8 2.4-3.6 4-1 2-.8 4.3.3 6 1.3 2 3.5 3.1 5.8 3.1 4 0 7-2.9 7-6.8 0-3.3-2-5-3.6-6.8-.9-1-1.7-2.2-1.7-4.3-1.1.8-1.9 1.7-2.4 2.8z"/>
  <path d="M11.9 13.4c-.9.8-1.7 1.7-1.7 3 0 1.7 1.3 2.8 2.9 2.8 1.7 0 3-1.2 3-2.9 0-1.4-.8-2.2-1.6-3.1-.4-.4-.8-.9-1-1.6-.5.7-1 1.3-1.6 1.8z"/>
</svg>
